<svg width="158" height="130" viewBox="0 0 158 130" fill="none" xmlns="http://www.w3.org/2000/svg">
<path d="M57.5546 16.4363H35.5413L0 63.189L35.5413 109.942H57.5546L22.0133 63.189L57.5546 16.4363ZM99.7126 16.4363H121.726L157.267 63.189L121.726 109.942H99.7126L135.254 63.189L99.7126 16.4363ZM89.8066 0.0543262L97.4345 1.83331C98.6376 2.11487 99.3799 3.31793 99.1111 4.52098L70.3146 128.269C70.0331 129.459 68.83 130.214 67.6269 129.946L60.0119 128.167C58.8088 127.885 58.0665 126.682 58.3353 125.479L87.1318 1.73092C87.4133 0.540667 88.6164 -0.214441 89.8066 0.0543262Z" fill="#fff"/>
</svg>
