<svg width="137" height="130" viewBox="0 0 137 130" fill="none" xmlns="http://www.w3.org/2000/svg">
<path fill-rule="evenodd" clip-rule="evenodd" d="M50.8616 5.74187C62.3887 0.857153 73.9269 -0.785789 84.6521 0.33891C116.783 3.70198 141.497 31.9297 136.129 72.1873C133.155 94.4828 125.893 114.364 104.521 124.188C93.4171 129.293 81.4446 131.069 71.7885 129.382C49.2356 125.445 55.7063 110.383 49.6588 94.7695C42.5309 76.3553 27.7852 71.5919 21.6931 95.2326C20.1561 101.209 14.6877 103.039 11.38 103.403C4.55281 104.153 -0.926725 95.409 0.131317 79.983C2.32536 48.2599 20.9692 18.4113 50.8616 5.74187ZM32.8972 41.8535C38.9781 41.8535 43.9008 46.7272 43.9008 52.7477C43.9008 58.7681 38.9781 63.6418 32.8972 63.6418C26.8162 63.6418 21.8936 58.7681 21.8936 52.7477C21.8936 46.7382 26.8162 41.8535 32.8972 41.8535ZM105.668 67.8539C109.288 67.8539 112.228 70.7649 112.228 74.3485C112.228 77.9431 109.288 80.8541 105.668 80.8541C102.049 80.8541 99.1083 77.9431 99.1083 74.3485C99.1083 70.7539 102.049 67.8539 105.668 67.8539ZM79.7962 77.0279C88.1158 77.0279 94.8538 83.6989 94.8538 91.9357C94.8538 100.172 88.1158 106.843 79.7962 106.843C71.4767 106.843 64.7387 100.161 64.7387 91.9357C64.7498 83.6989 71.4878 77.0279 79.7962 77.0279ZM63.9702 56.1879C67.5898 56.1879 70.53 59.0989 70.53 62.6825C70.53 66.2661 67.5898 69.1771 63.9702 69.1771C60.3394 69.1771 57.3992 66.2661 57.3992 62.6825C57.4103 59.0989 60.3506 56.1879 63.9702 56.1879ZM96.7917 24.8507C105.111 24.8507 111.849 31.5217 111.849 39.7585C111.849 47.9953 105.1 54.6663 96.7917 54.6663C88.4722 54.6663 81.7341 47.9953 81.7341 39.7585C81.7341 31.5217 88.4722 24.8507 96.7917 24.8507ZM62.6226 22.7447C67.7346 22.7447 71.8888 26.8575 71.8888 31.9187C71.8888 36.9798 67.7457 41.0927 62.6226 41.0927C57.5106 41.0927 53.3564 36.9798 53.3564 31.9187C53.3564 26.8465 57.5106 22.7447 62.6226 22.7447Z" fill="#fff"/>
</svg>
