<svg width="130" height="130" viewBox="0 0 130 130" fill="none" xmlns="http://www.w3.org/2000/svg">
<path d="M65 0C29.104 0 0 29.104 0 65C0 100.896 29.104 130 65 130C100.896 130 130 100.896 130 65C130 29.104 100.896 0 65 0ZM112.533 39.0169C112.766 40.7414 112.893 42.5928 112.893 44.5817C112.893 50.0724 111.867 56.2508 108.778 63.9844L92.2314 111.814C108.333 102.43 119.167 84.974 119.167 65C119.167 55.5843 116.765 46.7293 112.533 39.0169ZM65.9521 69.7396L49.7021 116.966C54.5581 118.394 59.6891 119.177 65 119.177C71.3053 119.177 77.3568 118.088 82.985 116.109C82.8369 115.876 82.71 115.633 82.5936 115.358L65.9521 69.7396ZM101.562 62.2705C101.562 55.5737 99.161 50.9399 97.098 47.3324C94.3473 42.8678 91.7765 39.091 91.7765 34.6265C91.7765 29.6436 95.5534 25.0098 100.875 25.0098C101.118 25.0098 101.34 25.0415 101.573 25.0521C91.9352 16.2183 79.0918 10.8333 65 10.8333C46.0734 10.8333 29.432 20.5452 19.7412 35.2507C21.0107 35.293 22.2062 35.3141 23.2324 35.3141C28.8924 35.3141 37.6733 34.6265 37.6733 34.6265C40.5933 34.4572 40.9318 38.7419 38.0225 39.091C38.0225 39.091 35.092 39.4295 31.8229 39.6094L51.543 98.2829L63.4025 62.736L54.9601 39.6094C52.0402 39.4401 49.279 39.091 49.279 39.091C46.3591 38.9217 46.6976 34.4572 49.6175 34.6265C49.6175 34.6265 58.5571 35.3141 63.8786 35.3141C69.5386 35.3141 78.3195 34.6265 78.3195 34.6265C81.2394 34.4572 81.578 38.7419 78.6686 39.091C78.6686 39.091 75.7275 39.4295 72.4691 39.6094L92.041 97.828L97.627 80.118C100.113 72.3844 101.562 66.9043 101.562 62.2705ZM10.8333 65C10.8333 86.4445 23.2959 104.969 41.3656 113.75L15.52 42.9525C12.5155 49.6916 10.8333 57.1395 10.8333 65ZM65 3.90381C73.252 3.90381 81.25 5.52246 88.7826 8.70687C92.4007 10.2409 95.8919 12.1346 99.161 14.3351C102.398 16.5251 105.445 19.0324 108.206 21.7936C110.968 24.5549 113.486 27.6017 115.665 30.839C117.876 34.1081 119.77 37.5993 121.293 41.2174C124.478 48.75 126.096 56.748 126.096 65C126.096 73.252 124.478 81.25 121.293 88.7826C119.759 92.4007 117.865 95.8919 115.665 99.161C113.475 102.398 110.968 105.445 108.206 108.206C105.445 110.968 102.398 113.486 99.161 115.665C95.8919 117.876 92.4007 119.77 88.7826 121.293C81.25 124.478 73.252 126.096 65 126.096C56.748 126.096 48.75 124.478 41.2174 121.293C37.5993 119.759 34.1081 117.865 30.839 115.665C27.6017 113.475 24.5549 110.968 21.7936 108.206C19.0324 105.445 16.5145 102.398 14.3351 99.161C12.124 95.8919 10.2303 92.4007 8.70687 88.7826C5.51188 81.25 3.90381 73.252 3.90381 65C3.90381 56.748 5.52246 48.75 8.70687 41.2174C10.2409 37.5993 12.1346 34.1081 14.3351 30.839C16.5251 27.6017 19.0324 24.5549 21.7936 21.7936C24.5549 19.0324 27.6017 16.5145 30.839 14.3351C34.1081 12.124 37.5993 10.2303 41.2174 8.70687C48.75 5.51188 56.748 3.90381 65 3.90381Z" fill="#fff"/>
</svg>
